<svg xmlns="http://www.w3.org/2000/svg" width="1600" height="900" viewBox="0 0 1600 900">
<defs>
  <linearGradient id="bg" x1="0" y1="0" x2="0" y2="1">
    <stop offset="0" stop-color="#070b15"/><stop offset="1" stop-color="#0b1322"/>
  </linearGradient>
  <radialGradient id="glow" cx="70%" cy="25%" r="75%">
    <stop offset="0" stop-color="#4d8bff" stop-opacity="0.30"/>
    <stop offset="55%" stop-color="#4d8bff" stop-opacity="0.06"/>
    <stop offset="100%" stop-color="#4d8bff" stop-opacity="0"/>
  </radialGradient>
  <radialGradient id="vig" cx="50%" cy="42%" r="75%">
    <stop offset="60%" stop-color="#000" stop-opacity="0"/>
    <stop offset="100%" stop-color="#000" stop-opacity="0.45"/>
  </radialGradient>
  <pattern id="grid" width="46" height="46" patternUnits="userSpaceOnUse">
    <path d="M46 0H0V46" fill="none" stroke="rgba(208,224,255,0.05)" stroke-width="1"/>
  </pattern>
</defs>
<rect width="1600" height="900" fill="url(#bg)"/>
<rect width="1600" height="900" fill="url(#grid)"/>
<rect width="1600" height="900" fill="url(#glow)"/>

  <line x1="1332" y1="234" x2="1264.228164334572" y2="374.72966684424534" stroke="#4d8bff" stroke-width="1.4" opacity="0.35"/><line x1="1332" y1="234" x2="989.8256037775645" y2="155.90092695883956" stroke="#4d8bff" stroke-width="1.4" opacity="0.35"/><line x1="1332" y1="234" x2="1111.9462318878634" y2="58.512975807271744" stroke="#4d8bff" stroke-width="1.4" opacity="0.35"/><line x1="1332" y1="234" x2="1152" y2="234" stroke="#4d8bff" stroke-width="1.4" opacity="0.35"/><line x1="1264.228164334572" y1="374.72966684424534" x2="1111.9462318878634" y2="409.48702419272826" stroke="#4d8bff" stroke-width="1.4" opacity="0.35"/><line x1="1264.228164334572" y1="374.72966684424534" x2="989.8256037775645" y2="155.90092695883956" stroke="#4d8bff" stroke-width="1.4" opacity="0.35"/><line x1="1264.228164334572" y1="374.72966684424534" x2="1264.228164334572" y2="93.27033315575463" stroke="#4d8bff" stroke-width="1.4" opacity="0.35"/><line x1="1264.228164334572" y1="374.72966684424534" x2="1152" y2="234" stroke="#4d8bff" stroke-width="1.4" opacity="0.35"/><line x1="989.8256037775645" y1="312.09907304116047" x2="1264.228164334572" y2="93.27033315575463" stroke="#4d8bff" stroke-width="1.4" opacity="0.35"/><line x1="989.8256037775645" y1="312.09907304116047" x2="1152" y2="234" stroke="#4d8bff" stroke-width="1.4" opacity="0.35"/><line x1="989.8256037775645" y1="155.90092695883956" x2="1264.228164334572" y2="93.27033315575463" stroke="#4d8bff" stroke-width="1.4" opacity="0.35"/><line x1="989.8256037775645" y1="155.90092695883956" x2="1152" y2="234" stroke="#4d8bff" stroke-width="1.4" opacity="0.35"/><circle cx="1332" cy="234" r="5.5" fill="#4d8bff" opacity="0.85"/><circle cx="1264.228164334572" cy="374.72966684424534" r="5.5" fill="#4d8bff" opacity="0.85"/><circle cx="1111.9462318878634" cy="409.48702419272826" r="5.5" fill="#4d8bff" opacity="0.85"/><circle cx="989.8256037775645" cy="312.09907304116047" r="5.5" fill="#4d8bff" opacity="0.85"/><circle cx="989.8256037775645" cy="155.90092695883956" r="5.5" fill="#4d8bff" opacity="0.85"/><circle cx="1111.9462318878634" cy="58.512975807271744" r="5.5" fill="#4d8bff" opacity="0.85"/><circle cx="1264.228164334572" cy="93.27033315575463" r="5.5" fill="#4d8bff" opacity="0.85"/><circle cx="1152" cy="234" r="9" fill="#4d8bff" opacity="1"/>
  <g opacity="0.95">
  <rect x="96" y="738" width="96" height="162" rx="3" fill="#131d31" stroke="#4d8bff" stroke-opacity="0.25" stroke-width="1.2"/><rect x="102" y="748" width="8" height="8" fill="#4d8bff" opacity="0.7"/><rect x="102" y="774" width="8" height="8" fill="#4d8bff" opacity="0.15"/><rect x="102" y="800" width="8" height="8" fill="#4d8bff" opacity="0.15"/><rect x="102" y="826" width="8" height="8" fill="#4d8bff" opacity="0.15"/><rect x="102" y="852" width="8" height="8" fill="#4d8bff" opacity="0.15"/><rect x="102" y="878" width="8" height="8" fill="#4d8bff" opacity="0.15"/><rect x="224.00000000000003" y="648" width="96" height="252.00000000000003" rx="3" fill="#131d31" stroke="#4d8bff" stroke-opacity="0.25" stroke-width="1.2"/><rect x="230.00000000000003" y="658" width="8" height="8" fill="#4d8bff" opacity="0.15"/><rect x="230.00000000000003" y="684" width="8" height="8" fill="#4d8bff" opacity="0.15"/><rect x="230.00000000000003" y="710" width="8" height="8" fill="#4d8bff" opacity="0.15"/><rect x="230.00000000000003" y="736" width="8" height="8" fill="#4d8bff" opacity="0.15"/><rect x="230.00000000000003" y="762" width="8" height="8" fill="#4d8bff" opacity="0.7"/><rect x="230.00000000000003" y="788" width="8" height="8" fill="#4d8bff" opacity="0.15"/><rect x="230.00000000000003" y="814" width="8" height="8" fill="#4d8bff" opacity="0.7"/><rect x="230.00000000000003" y="840" width="8" height="8" fill="#4d8bff" opacity="0.7"/><rect x="230.00000000000003" y="866" width="8" height="8" fill="#4d8bff" opacity="0.15"/><rect x="336" y="558" width="96" height="342" rx="3" fill="#131d31" stroke="#4d8bff" stroke-opacity="0.25" stroke-width="1.2"/><rect x="342" y="568" width="8" height="8" fill="#4d8bff" opacity="0.15"/><rect x="342" y="594" width="8" height="8" fill="#4d8bff" opacity="0.15"/><rect x="342" y="620" width="8" height="8" fill="#4d8bff" opacity="0.7"/><rect x="342" y="646" width="8" height="8" fill="#4d8bff" opacity="0.15"/><rect x="342" y="672" width="8" height="8" fill="#4d8bff" opacity="0.7"/><rect x="342" y="698" width="8" height="8" fill="#4d8bff" opacity="0.15"/><rect x="342" y="724" width="8" height="8" fill="#4d8bff" opacity="0.7"/><rect x="342" y="750" width="8" height="8" fill="#4d8bff" opacity="0.7"/><rect x="342" y="776" width="8" height="8" fill="#4d8bff" opacity="0.7"/><rect x="342" y="802" width="8" height="8" fill="#4d8bff" opacity="0.15"/><rect x="342" y="828" width="8" height="8" fill="#4d8bff" opacity="0.7"/><rect x="342" y="854" width="8" height="8" fill="#4d8bff" opacity="0.7"/><rect x="342" y="880" width="8" height="8" fill="#4d8bff" opacity="0.7"/><rect x="463.99999999999994" y="693" width="96" height="206.99999999999997" rx="3" fill="#131d31" stroke="#4d8bff" stroke-opacity="0.25" stroke-width="1.2"/><rect x="469.99999999999994" y="703" width="8" height="8" fill="#4d8bff" opacity="0.7"/><rect x="469.99999999999994" y="729" width="8" height="8" fill="#4d8bff" opacity="0.7"/><rect x="469.99999999999994" y="755" width="8" height="8" fill="#4d8bff" opacity="0.7"/><rect x="469.99999999999994" y="781" width="8" height="8" fill="#4d8bff" opacity="0.7"/><rect x="469.99999999999994" y="807" width="8" height="8" fill="#4d8bff" opacity="0.15"/><rect x="469.99999999999994" y="833" width="8" height="8" fill="#4d8bff" opacity="0.15"/><rect x="469.99999999999994" y="859" width="8" height="8" fill="#4d8bff" opacity="0.7"/><rect x="592" y="603" width="96" height="297" rx="3" fill="#131d31" stroke="#4d8bff" stroke-opacity="0.25" stroke-width="1.2"/><rect x="598" y="613" width="8" height="8" fill="#4d8bff" opacity="0.15"/><rect x="598" y="639" width="8" height="8" fill="#4d8bff" opacity="0.7"/><rect x="598" y="665" width="8" height="8" fill="#4d8bff" opacity="0.7"/><rect x="598" y="691" width="8" height="8" fill="#4d8bff" opacity="0.7"/><rect x="598" y="717" width="8" height="8" fill="#4d8bff" opacity="0.15"/><rect x="598" y="743" width="8" height="8" fill="#4d8bff" opacity="0.7"/><rect x="598" y="769" width="8" height="8" fill="#4d8bff" opacity="0.15"/><rect x="598" y="795" width="8" height="8" fill="#4d8bff" opacity="0.7"/><rect x="598" y="821" width="8" height="8" fill="#4d8bff" opacity="0.7"/><rect x="598" y="847" width="8" height="8" fill="#4d8bff" opacity="0.15"/><rect x="598" y="873" width="8" height="8" fill="#4d8bff" opacity="0.7"/><rect x="720" y="738" width="96" height="162" rx="3" fill="#131d31" stroke="#4d8bff" stroke-opacity="0.25" stroke-width="1.2"/><rect x="726" y="748" width="8" height="8" fill="#4d8bff" opacity="0.15"/><rect x="726" y="774" width="8" height="8" fill="#4d8bff" opacity="0.7"/><rect x="726" y="800" width="8" height="8" fill="#4d8bff" opacity="0.7"/><rect x="726" y="826" width="8" height="8" fill="#4d8bff" opacity="0.15"/><rect x="726" y="852" width="8" height="8" fill="#4d8bff" opacity="0.7"/><rect x="726" y="878" width="8" height="8" fill="#4d8bff" opacity="0.7"/><rect x="880.0000000000001" y="648" width="96" height="252.00000000000003" rx="3" fill="#131d31" stroke="#4d8bff" stroke-opacity="0.25" stroke-width="1.2"/><rect x="886.0000000000001" y="658" width="8" height="8" fill="#4d8bff" opacity="0.15"/><rect x="886.0000000000001" y="684" width="8" height="8" fill="#4d8bff" opacity="0.7"/><rect x="886.0000000000001" y="710" width="8" height="8" fill="#4d8bff" opacity="0.15"/><rect x="886.0000000000001" y="736" width="8" height="8" fill="#4d8bff" opacity="0.15"/><rect x="886.0000000000001" y="762" width="8" height="8" fill="#4d8bff" opacity="0.15"/><rect x="886.0000000000001" y="788" width="8" height="8" fill="#4d8bff" opacity="0.7"/><rect x="886.0000000000001" y="814" width="8" height="8" fill="#4d8bff" opacity="0.15"/><rect x="886.0000000000001" y="840" width="8" height="8" fill="#4d8bff" opacity="0.7"/><rect x="886.0000000000001" y="866" width="8" height="8" fill="#4d8bff" opacity="0.7"/><rect x="1008" y="558" width="96" height="342" rx="3" fill="#131d31" stroke="#4d8bff" stroke-opacity="0.25" stroke-width="1.2"/><rect x="1014" y="568" width="8" height="8" fill="#4d8bff" opacity="0.15"/><rect x="1014" y="594" width="8" height="8" fill="#4d8bff" opacity="0.15"/><rect x="1014" y="620" width="8" height="8" fill="#4d8bff" opacity="0.7"/><rect x="1014" y="646" width="8" height="8" fill="#4d8bff" opacity="0.7"/><rect x="1014" y="672" width="8" height="8" fill="#4d8bff" opacity="0.15"/><rect x="1014" y="698" width="8" height="8" fill="#4d8bff" opacity="0.15"/><rect x="1014" y="724" width="8" height="8" fill="#4d8bff" opacity="0.15"/><rect x="1014" y="750" width="8" height="8" fill="#4d8bff" opacity="0.15"/><rect x="1014" y="776" width="8" height="8" fill="#4d8bff" opacity="0.7"/><rect x="1014" y="802" width="8" height="8" fill="#4d8bff" opacity="0.15"/><rect x="1014" y="828" width="8" height="8" fill="#4d8bff" opacity="0.15"/><rect x="1014" y="854" width="8" height="8" fill="#4d8bff" opacity="0.7"/><rect x="1014" y="880" width="8" height="8" fill="#4d8bff" opacity="0.15"/><rect x="1136" y="693" width="96" height="206.99999999999997" rx="3" fill="#131d31" stroke="#4d8bff" stroke-opacity="0.25" stroke-width="1.2"/><rect x="1142" y="703" width="8" height="8" fill="#4d8bff" opacity="0.15"/><rect x="1142" y="729" width="8" height="8" fill="#4d8bff" opacity="0.15"/><rect x="1142" y="755" width="8" height="8" fill="#4d8bff" opacity="0.7"/><rect x="1142" y="781" width="8" height="8" fill="#4d8bff" opacity="0.7"/><rect x="1142" y="807" width="8" height="8" fill="#4d8bff" opacity="0.15"/><rect x="1142" y="833" width="8" height="8" fill="#4d8bff" opacity="0.7"/><rect x="1142" y="859" width="8" height="8" fill="#4d8bff" opacity="0.15"/><rect x="1280" y="603" width="96" height="297" rx="3" fill="#131d31" stroke="#4d8bff" stroke-opacity="0.25" stroke-width="1.2"/><rect x="1286" y="613" width="8" height="8" fill="#4d8bff" opacity="0.15"/><rect x="1286" y="639" width="8" height="8" fill="#4d8bff" opacity="0.15"/><rect x="1286" y="665" width="8" height="8" fill="#4d8bff" opacity="0.7"/><rect x="1286" y="691" width="8" height="8" fill="#4d8bff" opacity="0.7"/><rect x="1286" y="717" width="8" height="8" fill="#4d8bff" opacity="0.7"/><rect x="1286" y="743" width="8" height="8" fill="#4d8bff" opacity="0.15"/><rect x="1286" y="769" width="8" height="8" fill="#4d8bff" opacity="0.7"/><rect x="1286" y="795" width="8" height="8" fill="#4d8bff" opacity="0.15"/><rect x="1286" y="821" width="8" height="8" fill="#4d8bff" opacity="0.15"/><rect x="1286" y="847" width="8" height="8" fill="#4d8bff" opacity="0.15"/><rect x="1286" y="873" width="8" height="8" fill="#4d8bff" opacity="0.7"/><rect x="1408" y="738" width="96" height="162" rx="3" fill="#131d31" stroke="#4d8bff" stroke-opacity="0.25" stroke-width="1.2"/><rect x="1414" y="748" width="8" height="8" fill="#4d8bff" opacity="0.15"/><rect x="1414" y="774" width="8" height="8" fill="#4d8bff" opacity="0.15"/><rect x="1414" y="800" width="8" height="8" fill="#4d8bff" opacity="0.15"/><rect x="1414" y="826" width="8" height="8" fill="#4d8bff" opacity="0.7"/><rect x="1414" y="852" width="8" height="8" fill="#4d8bff" opacity="0.15"/><rect x="1414" y="878" width="8" height="8" fill="#4d8bff" opacity="0.15"/>
  </g>
  <path d="M0 666 L320 540 L640 648 L992 495.00000000000006 L1312 630 L1600 540 L1600 900 L0 900 Z" fill="#000" opacity="0.35"/>

<rect width="1600" height="900" fill="url(#vig)"/>
<g opacity="0.85"><rect x="0" y="894" width="160" height="6" fill="#002D62"/>
<rect x="160" y="894" width="160" height="6" fill="#CE1126"/>
<rect x="320" y="894" width="160" height="6" fill="#00A651"/></g>
</svg>