<svg xmlns="http://www.w3.org/2000/svg" width="1200" height="1200" viewBox="0 0 1200 1200"><defs>
  <linearGradient id="b" x1="0" y1="0" x2="0" y2="1"><stop offset="0" stop-color="#070c1a"/><stop offset="1" stop-color="#04060e"/></linearGradient>
  <radialGradient id="g" cx="75%" cy="25%" r="75%"><stop offset="0" stop-color="#2f6bff" stop-opacity="0.3"/><stop offset="60%" stop-color="#2f6bff" stop-opacity="0.05"/><stop offset="100%" stop-color="#2f6bff" stop-opacity="0"/></radialGradient>
  <pattern id="gr" width="46" height="46" patternUnits="userSpaceOnUse"><path d="M46 0H0V46" fill="none" stroke="rgba(47,107,255,0.06)" stroke-width="1"/></pattern>
  <radialGradient id="vig" cx="50%" cy="42%" r="75%"><stop offset="60%" stop-color="#000" stop-opacity="0"/><stop offset="100%" stop-color="#000" stop-opacity="0.45"/></radialGradient></defs>
  <rect width="1200" height="1200" fill="url(#b)"/><rect width="1200" height="1200" fill="url(#gr)"/><rect width="1200" height="1200" fill="url(#g)"/>
  
  <circle cx="960" cy="264" r="144" fill="#27e0ff" opacity="0.7"/>
  <circle cx="960" cy="264" r="216" fill="#27e0ff" opacity="0.12"/>
  <g transform="translate(144,600)"><path d="M-84.00000000000001 0 L84.00000000000001 0 L60 -40 L-60 -40 Z" fill="#2f6bff" opacity="0.55"/><rect x="-72" y="0" width="144" height="408.00000000000006" rx="6" fill="#0c1426" stroke="#2f6bff" stroke-opacity="0.4"/><circle cx="-36" cy="40" r="13" fill="#2f6bff" opacity="0.7"/><circle cx="0" cy="40" r="13" fill="#2f6bff" opacity="0.7"/><circle cx="36" cy="40" r="13" fill="#2f6bff" opacity="0.7"/></g><g transform="translate(408.00000000000006,600)"><path d="M-84.00000000000001 0 L84.00000000000001 0 L60 -40 L-60 -40 Z" fill="#27e0ff" opacity="0.55"/><rect x="-72" y="0" width="144" height="408.00000000000006" rx="6" fill="#0c1426" stroke="#27e0ff" stroke-opacity="0.4"/><circle cx="-36" cy="40" r="13" fill="#27e0ff" opacity="0.7"/><circle cx="0" cy="40" r="13" fill="#27e0ff" opacity="0.7"/><circle cx="36" cy="40" r="13" fill="#27e0ff" opacity="0.7"/></g><g transform="translate(672.0000000000001,600)"><path d="M-84.00000000000001 0 L84.00000000000001 0 L60 -40 L-60 -40 Z" fill="#1e49d6" opacity="0.55"/><rect x="-72" y="0" width="144" height="408.00000000000006" rx="6" fill="#0c1426" stroke="#1e49d6" stroke-opacity="0.4"/><circle cx="-36" cy="40" r="13" fill="#1e49d6" opacity="0.7"/><circle cx="0" cy="40" r="13" fill="#1e49d6" opacity="0.7"/><circle cx="36" cy="40" r="13" fill="#1e49d6" opacity="0.7"/></g><g transform="translate(936,600)"><path d="M-84.00000000000001 0 L84.00000000000001 0 L60 -40 L-60 -40 Z" fill="#2f6bff" opacity="0.55"/><rect x="-72" y="0" width="144" height="408.00000000000006" rx="6" fill="#0c1426" stroke="#2f6bff" stroke-opacity="0.4"/><circle cx="-36" cy="40" r="13" fill="#2f6bff" opacity="0.7"/><circle cx="0" cy="40" r="13" fill="#2f6bff" opacity="0.7"/><circle cx="36" cy="40" r="13" fill="#2f6bff" opacity="0.7"/></g>
<rect width="1200" height="1200" fill="url(#vig)"/>
  <rect x="0" y="1195" width="192" height="5" fill="#2f6bff"/><rect x="192" y="1195" width="120" height="5" fill="#27e0ff"/></svg>